<svg width="650" height="649" viewBox="0 0 650 649" fill="none" xmlns="http://www.w3.org/2000/svg">
<mask id="mask0_341_593" style="mask-type:alpha" maskUnits="userSpaceOnUse" x="0" y="0" width="650" height="649">
<mask id="path-1-outside-1_341_593" maskUnits="userSpaceOnUse" x="-0.9375" y="-0.875" width="651" height="650" fill="black">
<rect fill="white" x="-0.9375" y="-0.875" width="651" height="650"/>
<path d="M324.992 161.686L345.42 0.125L345.26 162.962L385.797 5.22862L365.369 166.79L425.376 15.2764L384.839 173.17L463.359 30.2682L403.192 181.782L499.107 49.8853L420.428 192.787L531.983 73.968L436.228 205.705L561.827 101.878L450.112 220.538L587.841 133.298L462.082 237.124L609.705 167.747L471.977 254.987L627.1 204.589L479.477 273.966L639.708 243.344L484.584 293.743L647.368 283.376L487.138 313.838L649.922 324.045L487.138 334.253L647.368 364.715L484.584 354.508L639.708 404.746L479.477 374.284L627.1 443.661L471.977 393.263L609.705 480.503L462.082 411.126L587.841 514.953L450.112 427.553L561.827 546.372L436.228 442.385L531.983 574.282L420.428 455.463L499.107 598.205L403.192 466.309L463.359 617.822L384.839 475.08L425.376 632.814L365.369 481.301L385.797 643.021L345.26 485.128L345.42 648.125L324.992 486.404L304.564 648.125L304.564 485.128L264.028 643.021L284.615 481.301L224.609 632.814L265.145 475.08L186.626 617.822L246.792 466.309L150.877 598.205L229.556 455.463L117.842 574.282L213.756 442.385L88.1574 546.372L199.872 427.553L62.1439 514.953L187.903 411.126L40.2797 480.503L178.008 393.263L22.8842 443.661L170.507 374.284L10.2764 404.746L165.4 354.508L2.61598 364.715L162.847 334.253L0.0625 324.045L162.847 313.838L2.61598 283.376L165.4 293.743L10.2764 243.344L170.507 273.966L22.8842 204.589L178.008 254.987L40.2797 167.747L187.903 237.124L62.1439 133.298L199.872 220.538L88.1574 101.878L213.756 205.705L117.842 73.968L229.556 192.787L150.877 49.8853L246.792 181.782L186.626 30.2682L265.145 173.17L224.609 15.2764L284.615 166.79L264.028 5.22862L304.564 162.962V0.125L324.992 161.686Z"/>
</mask>
<path d="M324.992 161.686L345.42 0.125L345.26 162.962L385.797 5.22862L365.369 166.79L425.376 15.2764L384.839 173.17L463.359 30.2682L403.192 181.782L499.107 49.8853L420.428 192.787L531.983 73.968L436.228 205.705L561.827 101.878L450.112 220.538L587.841 133.298L462.082 237.124L609.705 167.747L471.977 254.987L627.1 204.589L479.477 273.966L639.708 243.344L484.584 293.743L647.368 283.376L487.138 313.838L649.922 324.045L487.138 334.253L647.368 364.715L484.584 354.508L639.708 404.746L479.477 374.284L627.1 443.661L471.977 393.263L609.705 480.503L462.082 411.126L587.841 514.953L450.112 427.553L561.827 546.372L436.228 442.385L531.983 574.282L420.428 455.463L499.107 598.205L403.192 466.309L463.359 617.822L384.839 475.08L425.376 632.814L365.369 481.301L385.797 643.021L345.26 485.128L345.42 648.125L324.992 486.404L304.564 648.125L304.564 485.128L264.028 643.021L284.615 481.301L224.609 632.814L265.145 475.08L186.626 617.822L246.792 466.309L150.877 598.205L229.556 455.463L117.842 574.282L213.756 442.385L88.1574 546.372L199.872 427.553L62.1439 514.953L187.903 411.126L40.2797 480.503L178.008 393.263L22.8842 443.661L170.507 374.284L10.2764 404.746L165.4 354.508L2.61598 364.715L162.847 334.253L0.0625 324.045L162.847 313.838L2.61598 283.376L165.4 293.743L10.2764 243.344L170.507 273.966L22.8842 204.589L178.008 254.987L40.2797 167.747L187.903 237.124L62.1439 133.298L199.872 220.538L88.1574 101.878L213.756 205.705L117.842 73.968L229.556 192.787L150.877 49.8853L246.792 181.782L186.626 30.2682L265.145 173.17L224.609 15.2764L284.615 166.79L264.028 5.22862L304.564 162.962V0.125L324.992 161.686Z" stroke="black" stroke-width="2" stroke-miterlimit="10" mask="url(#path-1-outside-1_341_593)"/>
</mask>
<g mask="url(#mask0_341_593)">
<rect x="-827.369" y="-37.9922" width="1152.83" height="702.852" rx="45" fill="black"/>
</g>
</svg>
